<?xml version="1.0" standalone="no"?>
<!DOCTYPE svg PUBLIC "-//W3C//DTD SVG 20010904//EN"
 "http://www.w3.org/TR/2001/REC-SVG-20010904/DTD/svg10.dtd">
<svg version="1.0" xmlns="http://www.w3.org/2000/svg"
 width="212.000000pt" height="212.000000pt" viewBox="0 0 212.000000 212.000000"
 preserveAspectRatio="xMidYMid meet">
<metadata>
Created by potrace 1.11, written by Peter Selinger 2001-2013
</metadata>
<g transform="translate(0.000000,212.000000) scale(0.100000,-0.100000)"
fill="#000000" stroke="none">
<path d="M363 1748 c-40 -19 -45 -53 -45 -319 0 -141 -4 -263 -9 -278 -6 -14
-24 -40 -41 -58 -30 -31 -30 -33 -14 -55 71 -97 64 -60 65 -352 0 -145 5 -275
10 -289 14 -37 35 -44 138 -45 81 -1 94 2 103 18 15 28 -3 35 -96 36 -45 1
-86 4 -91 7 -6 4 -10 115 -10 281 l-1 274 -30 44 c-30 44 -30 44 -11 68 37 48
41 86 43 350 0 142 4 262 9 266 4 4 44 9 88 10 84 2 106 11 96 38 -5 13 -23
16 -94 15 -48 0 -98 -5 -110 -11z"/>
<path d="M1563 1744 c-11 -28 21 -41 96 -39 38 1 75 -1 82 -6 10 -6 13 -70 14
-276 1 -256 2 -270 23 -310 12 -23 26 -44 31 -48 6 -3 -4 -26 -22 -51 l-32
-46 -1 -274 c0 -151 -3 -277 -7 -280 -3 -3 -44 -7 -91 -7 -92 -2 -119 -14 -96
-42 10 -13 31 -16 99 -14 96 2 127 12 137 43 12 34 12 50 13 313 l1 252 40 46
c22 25 40 48 40 50 0 2 -16 22 -35 45 -19 23 -37 52 -40 64 -3 11 -7 140 -8
284 l-2 264 -28 24 c-25 21 -37 24 -118 24 -74 0 -91 -3 -96 -16z"/>
<path d="M797 1663 c-17 -16 -3 -43 53 -98 59 -59 60 -59 40 -80 -26 -27 -50
-88 -50 -124 0 -23 -8 -34 -37 -52 -21 -13 -40 -25 -43 -28 -3 -4 -19 -18 -36
-34 l-31 -27 -68 25 c-73 28 -95 27 -95 -3 0 -15 16 -25 63 -42 34 -12 63 -24
65 -25 2 -2 -8 -24 -22 -49 -51 -91 -64 -238 -31 -349 17 -58 24 -45 -59 -110
-73 -56 -30 -86 46 -31 l50 36 63 -69 c91 -100 186 -146 323 -157 75 -6 193
21 260 61 48 27 123 98 158 148 l21 29 49 -35 c60 -43 79 -50 92 -37 17 17 -2
42 -63 83 -40 26 -55 42 -50 53 41 109 31 272 -25 382 l-20 38 48 17 c83 30
92 35 99 51 13 34 -14 38 -91 10 -41 -14 -80 -26 -88 -26 -7 0 -26 14 -42 31
-17 17 -47 43 -68 56 -21 14 -38 33 -39 42 -2 48 -25 108 -55 142 -13 14 -7
23 46 78 61 63 72 87 44 98 -11 4 -37 -16 -83 -61 -65 -64 -69 -66 -97 -56
-37 15 -117 14 -145 0 -19 -11 -28 -5 -88 54 -64 64 -80 74 -94 59z"/>
</g>
</svg>
