<svg xmlns="http://www.w3.org/2000/svg" width="136.969" height="33.913" viewBox="0 0 136.969 33.913">
  <g id="Group_10" data-name="Group 10" transform="translate(-327.722 -198.254)">
    <g id="Group_1" data-name="Group 1">
      <path id="Path_1" data-name="Path 1" d="M333.722,222.455v-16.6l-3.991-1.5a1.475,1.475,0,0,0-2.009,1.374v20.725a1.476,1.476,0,0,0,.94,1.375l11.648,4.236a1.474,1.474,0,0,0,2.009-1.374v-4.077l-7.657-2.785A1.476,1.476,0,0,1,333.722,222.455Z" fill="#2e3192"/>
    </g>
    <g id="Group_2" data-name="Group 2">
      <path id="Path_2" data-name="Path 2" d="M349.379,202.737l-11.648-4.381a1.475,1.475,0,0,0-2.009,1.374v4.127l7.657,2.88a1.473,1.473,0,0,1,.94,1.374v16.5l3.991,1.451a1.474,1.474,0,0,0,2.009-1.374V204.111A1.473,1.473,0,0,0,349.379,202.737Z" fill="#00aeef"/>
    </g>
    <g id="Group_3" data-name="Group 3">
      <path id="Path_3" data-name="Path 3" d="M459.465,223.738h-.69V220.59h-.839v-.65H460.3v.65h-.84Zm1.889-4.147,1.259,2.808,1.269-2.808.809,4.147h-.7l-.359-2.069-1.02,2.14-1.019-2.14-.35,2.069h-.711Z" fill="#231f20"/>
    </g>
    <g id="Group_4" data-name="Group 4">
      <path id="Path_4" data-name="Path 4" d="M366.4,224.607h-4.427l1.8-14.542h4.391Zm2.879-20.049a2.646,2.646,0,1,1-2.591-2.628A2.65,2.65,0,0,1,369.275,204.558Z" fill="#231f20"/>
      <path id="Path_5" data-name="Path 5" d="M370.572,210.065h4.391l-.252,2.195c1.8-2.087,2.88-2.7,4.787-2.7a5.021,5.021,0,0,1,3.456,1.188,3.327,3.327,0,0,1,.9,2.663c0,.54-.036,1.044-.073,1.548l-1.222,9.647h-4.393l.973-7.991a9.33,9.33,0,0,0,.107-1.26c0-1.224-.647-1.835-1.979-1.835A2.921,2.921,0,0,0,374.711,215a8.1,8.1,0,0,0-.576,2.412l-.9,7.2h-4.464Z" fill="#231f20"/>
      <path id="Path_6" data-name="Path 6" d="M388.716,210.065l1.764,5.975a10.1,10.1,0,0,1,.648,3.564v.288l.216.036a12.239,12.239,0,0,1,1.619-3.852l3.385-6.011h4.57l-8.278,14.542h-3.924l-4.464-14.542Z" fill="#231f20"/>
      <path id="Path_7" data-name="Path 7" d="M415.03,217.084a7.887,7.887,0,0,1-8.1,7.991c-4.716,0-7.92-2.988-7.92-7.415a8.046,8.046,0,0,1,8.244-8.063C411.826,209.6,415.03,212.692,415.03,217.084Zm-11.266.54c0,2.124,1.224,3.527,3.023,3.527,2.053,0,3.492-1.728,3.492-4.175,0-2.088-1.187-3.455-3.06-3.455C405.24,213.521,403.764,215.248,403.764,217.624Z" fill="#231f20"/>
      <path id="Path_8" data-name="Path 8" d="M419.387,210.065l2.629,9.106,4.247-9.106h4.678L420.5,231.23h-4.645l3.456-7.127-4.643-14.038Z" fill="#231f20"/>
      <path id="Path_9" data-name="Path 9" d="M443.4,221.763c-1.224,2.124-3.564,3.312-6.587,3.312-4.571,0-7.487-2.88-7.487-7.343a7.816,7.816,0,0,1,8.1-8.135c4.319,0,6.947,2.772,6.947,7.379a9.71,9.71,0,0,1-.072,1.332H433.644a3.593,3.593,0,0,0,.647,1.872,3.481,3.481,0,0,0,2.628,1.079,4.121,4.121,0,0,0,2.663-1.008Zm-3.023-6.443a2.4,2.4,0,0,0-2.664-2.447c-1.729,0-2.7.683-3.672,2.447Z" fill="#231f20"/>
      <path id="Path_10" data-name="Path 10" d="M446.676,210.065h4.39l-.324,2.808c1.8-2.628,2.772-3.312,4.644-3.312l.757.036-.541,4.535a5.8,5.8,0,0,0-1.656-.252c-2.448,0-3.456,1.116-3.851,4.176l-.792,6.551h-4.428Z" fill="#231f20"/>
    </g>
  </g>
</svg>
