<svg width="150" height="64" viewBox="0 0 213 64" fill="none" xmlns="http://www.w3.org/2000/svg">
<rect width="213" height="64" rx="10" fill="black"/>
<path d="M69.0254 22H72.5776C75.7197 22 77.5654 20.0444 77.5654 16.7119V16.6973C77.5654 13.3794 75.7051 11.4312 72.5776 11.4312H69.0254V22ZM70.3438 20.8135V12.6177H72.4897C74.8848 12.6177 76.2178 14.0752 76.2178 16.7119V16.7266C76.2178 19.3486 74.8848 20.8135 72.4897 20.8135H70.3438ZM83.365 22.1465C85.4671 22.1465 86.888 20.623 86.888 18.1914V18.1768C86.888 15.7451 85.4598 14.2363 83.3577 14.2363C81.2557 14.2363 79.8348 15.7524 79.8348 18.1768V18.1914C79.8348 20.6157 81.2483 22.1465 83.365 22.1465ZM83.3724 21.0186C82.0247 21.0186 81.1385 19.9858 81.1385 18.1914V18.1768C81.1385 16.397 82.032 15.3643 83.3577 15.3643C84.7054 15.3643 85.5843 16.3896 85.5843 18.1768V18.1914C85.5843 19.9785 84.7127 21.0186 83.3724 21.0186ZM90.8858 22H92.1822L93.8961 16.104H93.9254L95.6466 22H96.943L99.067 14.3828H97.8072L96.2838 20.5791H96.2545L94.526 14.3828H93.2955L91.5743 20.5791H91.545L90.0216 14.3828H88.7545L90.8858 22ZM101.314 22H102.589V17.5176C102.589 16.2212 103.372 15.3643 104.574 15.3643C105.746 15.3643 106.324 16.0454 106.324 17.2832V22H107.599V17.0562C107.599 15.3203 106.632 14.2363 104.962 14.2363C103.805 14.2363 103.028 14.7563 102.618 15.4668H102.589V14.3828H101.314V22ZM110.49 22H111.765V11.4312H110.49V22ZM117.843 22.1465C119.945 22.1465 121.366 20.623 121.366 18.1914V18.1768C121.366 15.7451 119.938 14.2363 117.835 14.2363C115.733 14.2363 114.312 15.7524 114.312 18.1768V18.1914C114.312 20.6157 115.726 22.1465 117.843 22.1465ZM117.85 21.0186C116.502 21.0186 115.616 19.9858 115.616 18.1914V18.1768C115.616 16.397 116.51 15.3643 117.835 15.3643C119.183 15.3643 120.062 16.3896 120.062 18.1768V18.1914C120.062 19.9785 119.19 21.0186 117.85 21.0186ZM126.081 22.1465C127.099 22.1465 128.015 21.5972 128.462 20.7622H128.491V22H129.765V16.7339C129.765 15.2104 128.638 14.2363 126.836 14.2363C125.041 14.2363 123.95 15.2471 123.84 16.4995L123.833 16.5801H125.063L125.078 16.5142C125.224 15.833 125.84 15.3643 126.821 15.3643C127.883 15.3643 128.491 15.9282 128.491 16.8584V17.4956L126.308 17.6201C124.558 17.7227 123.547 18.5356 123.547 19.832V19.8467C123.547 21.231 124.565 22.1465 126.081 22.1465ZM124.851 19.8467V19.832C124.851 19.1216 125.437 18.6675 126.455 18.6089L128.491 18.4844V19.1069C128.491 20.2129 127.568 21.0405 126.367 21.0405C125.451 21.0405 124.851 20.5791 124.851 19.8467ZM135.448 22.1465C136.539 22.1465 137.389 21.5972 137.865 20.7109H137.894V22H139.169V11.4312H137.894V15.6572H137.865C137.389 14.7783 136.503 14.2363 135.426 14.2363C133.514 14.2363 132.211 15.7817 132.211 18.1841V18.1914C132.211 20.5938 133.5 22.1465 135.448 22.1465ZM135.697 21.0186C134.349 21.0186 133.514 19.9419 133.514 18.1914V18.1841C133.514 16.4482 134.349 15.3643 135.697 15.3643C136.979 15.3643 137.901 16.4849 137.901 18.1841V18.1914C137.901 19.8979 136.986 21.0186 135.697 21.0186ZM149.523 22.1465C151.625 22.1465 153.046 20.623 153.046 18.1914V18.1768C153.046 15.7451 151.617 14.2363 149.515 14.2363C147.413 14.2363 145.992 15.7524 145.992 18.1768V18.1914C145.992 20.6157 147.406 22.1465 149.523 22.1465ZM149.53 21.0186C148.182 21.0186 147.296 19.9858 147.296 18.1914V18.1768C147.296 16.397 148.19 15.3643 149.515 15.3643C150.863 15.3643 151.742 16.3896 151.742 18.1768V18.1914C151.742 19.9785 150.87 21.0186 149.53 21.0186ZM155.535 22H156.809V17.5176C156.809 16.2212 157.593 15.3643 158.794 15.3643C159.966 15.3643 160.544 16.0454 160.544 17.2832V22H161.819V17.0562C161.819 15.3203 160.852 14.2363 159.182 14.2363C158.025 14.2363 157.249 14.7563 156.838 15.4668H156.809V14.3828H155.535V22ZM171.397 22.1465C171.646 22.1465 171.917 22.1172 172.078 22.0952V21.0625C171.968 21.0698 171.821 21.0918 171.668 21.0918C170.986 21.0918 170.628 20.8647 170.628 20.0518V15.4375H172.078V14.3828H170.628V12.3247H169.309V14.3828H168.196V15.4375H169.309V20.0591C169.309 21.5166 169.998 22.1465 171.397 22.1465ZM174.713 22H175.988V17.5542C175.988 16.2578 176.771 15.3643 177.951 15.3643C179.137 15.3643 179.84 16.1772 179.84 17.5542V22H181.115V17.3345C181.115 15.4888 180.009 14.2363 178.39 14.2363C177.255 14.2363 176.427 14.7417 176.017 15.5986H175.988V11.4312H174.713V22ZM187.068 22.1465C188.731 22.1465 189.976 21.1504 190.225 19.8906L190.239 19.8174H188.987L188.965 19.8833C188.745 20.5352 188.064 21.0186 187.097 21.0186C185.742 21.0186 184.878 20.103 184.849 18.5356H190.335V18.0669C190.335 15.7817 189.068 14.2363 186.988 14.2363C184.907 14.2363 183.56 15.855 183.56 18.2134V18.2207C183.56 20.6157 184.878 22.1465 187.068 22.1465ZM186.98 15.3643C188.093 15.3643 188.914 16.0601 189.038 17.5396H184.871C185.01 16.1187 185.874 15.3643 186.98 15.3643Z" fill="white"/>
<path d="M68.354 51H71.0303L73.0977 45.1519H81.3247L83.3921 51H86.0684L78.4785 30.5669H75.958L68.354 51ZM77.1899 33.6255H77.2466L80.5601 42.9854H73.8765L77.1899 33.6255ZM88.0366 55.9561H90.5005V48.5361H90.5571C91.4775 50.2354 93.1909 51.2832 95.2725 51.2832C98.9683 51.2832 101.489 48.2954 101.489 43.6509V43.6367C101.489 38.9922 98.9966 35.9902 95.23 35.9902C93.1201 35.9902 91.4775 37.0522 90.5571 38.7656H90.5005V36.2734H88.0366V55.9561ZM94.7485 49.1025C92.2705 49.1025 90.4863 46.936 90.4863 43.6509V43.6367C90.4863 40.3374 92.2563 38.1709 94.7485 38.1709C97.354 38.1709 98.9683 40.2524 98.9683 43.6367V43.6509C98.9683 47.0068 97.354 49.1025 94.7485 49.1025ZM103.981 55.9561H106.445V48.5361H106.501C107.422 50.2354 109.135 51.2832 111.217 51.2832C114.913 51.2832 117.433 48.2954 117.433 43.6509V43.6367C117.433 38.9922 114.941 35.9902 111.174 35.9902C109.064 35.9902 107.422 37.0522 106.501 38.7656H106.445V36.2734H103.981V55.9561ZM110.693 49.1025C108.215 49.1025 106.431 46.936 106.431 43.6509V43.6367C106.431 40.3374 108.201 38.1709 110.693 38.1709C113.298 38.1709 114.913 40.2524 114.913 43.6367V43.6509C114.913 47.0068 113.298 49.1025 110.693 49.1025ZM132.938 51.3398C137.611 51.3398 140.486 49.0459 140.486 45.4209V45.4067C140.486 42.2915 138.73 40.5923 134.539 39.6719L132.273 39.1763C129.611 38.5957 128.379 37.5479 128.379 35.877V35.8628C128.379 33.8945 130.163 32.5918 132.896 32.5776C135.487 32.5776 137.229 33.8096 137.541 35.8911L137.569 36.0894H140.118L140.104 35.877C139.877 32.5352 136.96 30.2271 132.967 30.2271C128.761 30.2271 125.788 32.5776 125.773 35.9336V35.9478C125.773 38.9355 127.643 40.7339 131.636 41.6118L133.901 42.1074C136.705 42.7305 137.88 43.7358 137.88 45.5342V45.5483C137.88 47.6582 136.025 48.9893 133.08 48.9893C130.121 48.9893 128.138 47.729 127.841 45.6758L127.812 45.4775H125.264L125.278 45.6758C125.533 49.1733 128.521 51.3398 132.938 51.3398ZM147.877 51.2832C148.359 51.2832 148.883 51.2266 149.194 51.1841V49.1875C148.982 49.2017 148.699 49.2441 148.401 49.2441C147.084 49.2441 146.391 48.8052 146.391 47.2334V38.3125H149.194V36.2734H146.391V32.2944H143.842V36.2734H141.689V38.3125H143.842V47.2476C143.842 50.0654 145.173 51.2832 147.877 51.2832ZM157.521 51.2832C161.584 51.2832 164.332 48.3379 164.332 43.6367V43.6084C164.332 38.9072 161.57 35.9902 157.506 35.9902C153.442 35.9902 150.695 38.9214 150.695 43.6084V43.6367C150.695 48.3237 153.428 51.2832 157.521 51.2832ZM157.535 49.1025C154.929 49.1025 153.216 47.106 153.216 43.6367V43.6084C153.216 40.1675 154.943 38.1709 157.506 38.1709C160.112 38.1709 161.811 40.1533 161.811 43.6084V43.6367C161.811 47.0918 160.126 49.1025 157.535 49.1025ZM166.824 51H169.288V41.9092C169.288 39.6719 170.534 38.3408 172.445 38.3408C173.04 38.3408 173.564 38.4116 173.762 38.4824V36.0894C173.564 36.061 173.196 35.9902 172.771 35.9902C171.114 35.9902 169.84 37.0664 169.344 38.7656H169.288V36.2734H166.824V51ZM181.125 51.2832C184.34 51.2832 186.747 49.3574 187.229 46.9219L187.257 46.7803H184.835L184.793 46.9077C184.368 48.168 183.051 49.1025 181.182 49.1025C178.562 49.1025 176.892 47.3325 176.835 44.3022H187.441V43.396C187.441 38.978 184.991 35.9902 180.97 35.9902C176.948 35.9902 174.343 39.1196 174.343 43.6792V43.6934C174.343 48.3237 176.892 51.2832 181.125 51.2832ZM180.956 38.1709C183.108 38.1709 184.694 39.5161 184.935 42.3765H176.877C177.146 39.6294 178.817 38.1709 180.956 38.1709Z" fill="white"/>
<path fill-rule="evenodd" clip-rule="evenodd" d="M42.3214 10.9999C40.2062 11.0883 37.6434 12.4046 36.1265 14.1741C34.763 15.7456 33.5727 18.2537 33.8936 20.6585C36.2551 20.8427 38.6613 19.4635 40.1313 17.693C41.5983 15.9194 42.5916 13.4579 42.3214 10.9999ZM41.7235 52.8515C44.5893 52.7983 46.4045 50.2593 48.1592 47.7046C50.082 44.9062 50.931 42.1931 51.0577 41.7885C51.0647 41.766 51.0695 41.7506 51.0721 41.7428C51.0708 41.7422 51.0673 41.7408 51.0616 41.7385C50.7859 41.6268 45.4815 39.4784 45.4287 33.2684C45.3769 28.1401 49.4823 25.5891 49.9343 25.3082C49.95 25.2985 49.9613 25.2914 49.9678 25.2871C47.4968 21.6873 43.649 21.1937 42.2781 21.1373C40.2755 20.9356 38.3327 21.6982 36.7453 22.3212C35.7365 22.7171 34.8713 23.0567 34.2255 23.0567C33.5067 23.0567 32.6177 22.7053 31.6201 22.3109C30.3144 21.7947 28.8225 21.2048 27.2822 21.2331C23.7147 21.2862 20.4225 23.3014 18.5853 26.4863C14.8751 32.8994 17.6338 42.4024 21.2483 47.6023C23.0175 50.1455 25.1212 53.0078 27.8879 52.9048C29.1232 52.8554 30.0023 52.4825 30.9115 52.0968C31.9623 51.6511 33.0532 51.1883 34.7805 51.1883C36.4255 51.1883 37.466 51.6368 38.4667 52.0681C39.4239 52.4807 40.3447 52.8776 41.7235 52.8515Z" fill="white"/>
</svg>
